<?xml version="1.0" standalone="no"?>
<!DOCTYPE svg PUBLIC "-//W3C//DTD SVG 20010904//EN"
 "http://www.w3.org/TR/2001/REC-SVG-20010904/DTD/svg10.dtd">
<svg version="1.0" xmlns="http://www.w3.org/2000/svg"
 width="200.000000pt" height="200.000000pt" viewBox="0 0 200.000000 200.000000"
 preserveAspectRatio="xMidYMid meet">
<metadata>
Created by potrace 1.11, written by Peter Selinger 2001-2013
</metadata>
<g transform="translate(0.000000,200.000000) scale(0.100000,-0.100000)"
fill="#000000" stroke="none">
<path d="M879 1986 c-2 -2 -26 -7 -52 -10 -66 -9 -200 -52 -267 -86 -227 -116
-423 -340 -499 -573 -46 -138 -63 -348 -39 -475 4 -26 11 -60 14 -75 17 -98
90 -254 165 -353 140 -186 336 -320 544 -373 110 -27 145 -32 257 -32 275 0
499 93 695 287 187 185 279 392 290 651 9 196 -18 332 -94 487 -84 172 -241
338 -408 432 -98 54 -163 78 -305 110 -30 7 -295 16 -301 10z m253 -110 c24
-3 52 -8 63 -10 42 -8 174 -56 208 -75 19 -10 45 -25 58 -33 34 -18 126 -94
175 -142 195 -195 283 -477 239 -766 -45 -303 -289 -591 -585 -690 -128 -43
-292 -56 -435 -35 -369 54 -684 377 -732 750 -12 91 -4 289 13 316 2 3 6 21 9
39 11 61 57 164 110 245 196 298 526 449 877 401z"/>
<path d="M453 1498 c8 -18 27 -62 42 -98 15 -36 35 -83 45 -105 21 -46 220
-508 287 -665 119 -277 129 -297 156 -302 43 -8 67 9 94 69 39 89 74 170 172
398 90 209 91 210 70 226 -17 12 -272 162 -541 317 -22 12 -105 61 -185 107
-80 47 -147 85 -149 85 -2 0 2 -15 9 -32z"/>
<path d="M1535 1516 c-11 -7 -128 -75 -260 -151 -132 -76 -242 -139 -243 -141
-2 -1 41 -28 95 -60 54 -31 126 -74 161 -96 l63 -39 15 37 c31 74 187 429 196
447 10 20 1 21 -27 3z"/>
</g>
</svg>
